<svg width="24" height="24" viewBox="0 0 24 24" fill="none" xmlns="http://www.w3.org/2000/svg">
<path fill-rule="evenodd" clip-rule="evenodd" d="M13.7942 3.29494C13.2297 3.10345 12.6259 3 12 3C9.15354 3 6.76223 5.14032 6.44789 7.96942L6.19608 10.2356L6.18963 10.2933C6.06068 11.417 5.69492 12.5005 5.11649 13.4725L5.0867 13.5222L4.50866 14.4856C3.98411 15.3599 3.72183 15.797 3.77845 16.1559C3.81613 16.3946 3.93902 16.6117 4.12438 16.7668C4.40295 17 4.91273 17 5.93227 17H18.0678C19.0874 17 19.5971 17 19.8757 16.7668C20.0611 16.6117 20.184 16.3946 20.2216 16.1559C20.2783 15.797 20.016 15.3599 19.4914 14.4856L18.9134 13.5222L18.8836 13.4725C18.4274 12.7059 18.1034 11.8698 17.9237 10.9994C15.1975 10.9586 13 8.73592 13 6C13 5.00331 13.2917 4.07473 13.7942 3.29494ZM16.2741 4.98883C16.0999 5.28551 16 5.63109 16 6C16 6.94979 16.6621 7.74494 17.5499 7.94914C17.4205 6.82135 16.9609 5.80382 16.2741 4.98883Z" fill="white"/>
<path d="M9 17C9 17.394 9.0776 17.7841 9.22836 18.1481C9.37913 18.512 9.6001 18.8427 9.87868 19.1213C10.1573 19.3999 10.488 19.6209 10.8519 19.7716C11.2159 19.9224 11.606 20 12 20C12.394 20 12.7841 19.9224 13.1481 19.7716C13.512 19.6209 13.8427 19.3999 14.1213 19.1213C14.3999 18.8427 14.6209 18.512 14.7716 18.1481C14.9224 17.7841 15 17.394 15 17L12 17H9Z" fill="white"/>
<circle cx="18" cy="6" r="2.5" fill="white" stroke="white"/>
</svg>
