<svg width="23" height="26" viewBox="0 0 23 26" fill="none" xmlns="http://www.w3.org/2000/svg">
<path d="M22.2421 5.158L18.7229 1.1589C18.5561 0.971165 18.3308 0.865845 18.096 0.865845C17.8613 0.865845 17.636 0.971165 17.4692 1.1589L6.91156 13.1562C6.74816 13.3467 6.65729 13.6026 6.65861 13.8685V17.8676C6.65861 18.1328 6.75131 18.3871 6.9163 18.5746C7.0813 18.7621 7.30508 18.8674 7.53842 18.8674H11.0576C11.2917 18.8689 11.5169 18.7657 11.6845 18.58L22.2421 6.58268C22.4073 6.39313 22.5 6.13713 22.5 5.87034C22.5 5.60356 22.4073 5.34755 22.2421 5.158V5.158ZM10.6947 16.8679H8.41822V14.281L15.4566 6.28275L17.7331 8.86967L10.6947 16.8679ZM18.9758 7.45749L16.6994 4.87057L18.096 3.28343L20.3725 5.87034L18.9758 7.45749ZM21.6152 12.8688V23.8663C21.6152 24.3966 21.4299 24.9052 21.0999 25.2802C20.7699 25.6552 20.3223 25.8658 19.8556 25.8658H2.2596C1.79293 25.8658 1.34537 25.6552 1.01538 25.2802C0.685386 24.9052 0.5 24.3966 0.5 23.8663V3.87079C0.5 3.34048 0.685386 2.83189 1.01538 2.4569C1.34537 2.08191 1.79293 1.87124 2.2596 1.87124H11.9374C12.1708 1.87124 12.3945 1.97658 12.5595 2.16407C12.7245 2.35157 12.8172 2.60586 12.8172 2.87102C12.8172 3.13618 12.7245 3.39047 12.5595 3.57797C12.3945 3.76546 12.1708 3.87079 11.9374 3.87079H2.2596V23.8663H19.8556V12.8688C19.8556 12.6036 19.9483 12.3493 20.1133 12.1618C20.2783 11.9743 20.5021 11.869 20.7354 11.869C20.9688 11.869 21.1926 11.9743 21.3576 12.1618C21.5226 12.3493 21.6152 12.6036 21.6152 12.8688V12.8688Z" fill="#A8A8A8"/>
</svg>
